<svg width="95" height="28" viewBox="0 0 95 28" fill="none" xmlns="http://www.w3.org/2000/svg">
<path d="M4.33974 18.3387C6.73597 18.3387 8.6785 16.3961 8.6785 13.9999C8.6785 11.6037 6.73597 9.66113 4.33974 9.66113C1.94351 9.66113 0.000976562 11.6037 0.000976562 13.9999C0.000976562 16.3961 1.94351 18.3387 4.33974 18.3387Z" fill="#E5FB70"/>
<path d="M2.00326e-08 8.67811H8.67811V2.00326e-08C7.53846 -7.74148e-05 6.40996 0.224336 5.35705 0.660424C4.30414 1.09651 3.34744 1.73573 2.54159 2.54159C1.73573 3.34744 1.09651 4.30414 0.660424 5.35705C0.224336 6.40996 -7.74148e-05 7.53846 2.00326e-08 8.67811H2.00326e-08Z" fill="#E5FB70"/>
<path d="M0 28.0004C1.13965 28.0005 2.26815 27.776 3.32106 27.3399C4.37397 26.9039 5.33067 26.2646 6.13652 25.4588C6.94237 24.6529 7.5816 23.6962 8.01768 22.6433C8.45377 21.5904 8.67819 20.4619 8.67811 19.3223H0V28.0004Z" fill="#E5FB70"/>
<path d="M9.66113 0V18.3361C12.0672 18.2975 14.3616 17.3146 16.0495 15.5995C17.7374 13.8843 18.6833 11.5744 18.6833 9.16805C18.6833 6.76169 17.7374 4.45177 16.0495 2.73663C14.3616 1.02148 12.0672 0.0385908 9.66113 0Z" fill="#E5FB70"/>
<path d="M47.3026 8.24188C46.3474 7.54322 45.1288 7.15527 43.6471 7.15527C39.8013 7.15527 37.417 9.89272 37.417 13.5741C37.417 17.3504 39.8479 19.9929 43.8594 19.9929C47.0591 19.9929 48.5649 18.289 49.247 15.9578H45.6063C45.3705 16.5474 45.0869 17.1617 43.7892 17.1617C42.445 17.1617 41.1951 16.2644 41.1951 14.5675H49.3732C49.3761 13.7633 49.6167 9.93694 47.3026 8.24188ZM41.1939 12.277C41.1939 10.6014 42.2091 9.75181 43.6477 9.75181C45.0863 9.75181 46.1022 10.6008 46.1022 12.277H41.1939Z" fill="white"/>
<path d="M51.4555 2.74414H50.6006V19.6163H54.3739V5.21156C54.3775 3.90444 53.4182 2.74414 51.4555 2.74414Z" fill="white"/>
<path d="M61.7262 7.15625C57.7854 7.15625 56.1339 9.11485 56.0154 11.4278H59.5559C59.6738 10.271 60.3347 9.75219 61.7032 9.75219C62.7414 9.75219 63.2361 10.1767 63.2361 10.8848C63.2361 11.8995 61.7032 12.1359 60.1443 12.4425C57.3143 13.0085 55.542 14.1175 55.542 16.5248C55.542 18.5541 56.957 19.9939 59.507 19.9939C61.1118 19.9939 62.528 19.2386 63.3068 18.343H63.354C63.354 19.1926 63.3351 19.0452 63.3351 19.6254H67.0118V12.2774C67.013 8.4781 65.1245 7.15625 61.7262 7.15625ZM63.2373 15.2035C63.2373 16.3597 62.4578 17.3985 60.83 17.3985C59.9096 17.3985 59.3201 16.9734 59.3201 15.9835C59.3201 15.2289 59.8153 14.6145 61.3022 14.2843C62.1754 14.0957 62.765 13.9306 63.2373 13.7413V15.2035Z" fill="white"/>
<path d="M88.1515 7.15527C84.1158 7.15527 81.6855 9.82197 81.6855 13.5741C81.6855 17.3262 84.1158 19.9929 88.1515 19.9929C92.1607 19.9929 94.9978 17.3262 94.9978 13.5741C94.9978 9.82197 92.1631 7.15527 88.1515 7.15527ZM88.1515 17.1617C86.4759 17.1617 85.4612 15.9112 85.4612 13.5747C85.4612 11.2382 86.4759 9.98823 88.1515 9.98823C89.8024 9.98823 90.8182 11.2387 90.8182 13.5747C90.8182 15.9106 89.8035 17.1617 88.1515 17.1617Z" fill="white"/>
<path d="M30.6199 7.15625C27.4167 7.15625 26.6066 7.42628 25.484 8.48164C24.9239 9.00932 23.9004 10.0547 23.9004 13.6387V14.9529V25.2559H24.7907C25.5881 25.2559 26.353 24.9391 26.9169 24.3752C27.4808 23.8113 27.7976 23.0465 27.7976 22.249V21.2574V18.3619H27.8459C28.3329 19.0193 29.4295 19.9939 31.2566 19.9939C34.4487 19.9939 36.4945 16.8767 36.4945 13.2726C36.4945 9.66847 34.609 7.15625 30.6199 7.15625ZM30.2343 16.8013C28.7279 16.8013 27.9856 15.5537 27.9856 13.4406C27.9856 11.3276 28.7279 10.08 30.2343 10.08C31.7407 10.08 32.4824 11.327 32.4824 13.4406C32.4824 15.5543 31.7413 16.8013 30.2343 16.8013Z" fill="white"/>
<path d="M80.5898 13.6387C80.5898 10.0547 79.5669 9.00932 79.0062 8.48164C77.886 7.42569 77.0736 7.15625 73.8703 7.15625C69.8812 7.15625 67.9951 9.66553 67.9951 13.2714C67.9951 16.8773 70.041 19.9927 73.2324 19.9927C75.0601 19.9927 76.2576 19.2439 77.0647 18.1479V18.2794C77.0647 21.0787 75.5571 21.7284 74.2937 21.7284C72.3091 21.7284 71.5598 21.0652 71.5226 20.8364V20.8447H67.9969C67.9969 22.9672 69.9667 25.2553 74.2913 25.2553C77.4261 25.2553 80.5893 23.0562 80.5893 18.2805L80.5898 13.6387ZM74.2553 16.8013C72.7489 16.8013 72.0072 15.5537 72.0072 13.4406C72.0072 11.3276 72.7489 10.08 74.2553 10.08C75.7617 10.08 76.504 11.327 76.504 13.4406C76.504 15.5543 75.7629 16.8013 74.2553 16.8013Z" fill="white"/>
</svg>
