<svg width="20" height="28" viewBox="0 0 20 28" fill="none" xmlns="http://www.w3.org/2000/svg">
<path d="M4.33974 18.3387C6.73597 18.3387 8.6785 16.3961 8.6785 13.9999C8.6785 11.6037 6.73597 9.66113 4.33974 9.66113C1.94351 9.66113 0.000976562 11.6037 0.000976562 13.9999C0.000976562 16.3961 1.94351 18.3387 4.33974 18.3387Z" fill="#E5FB70"/>
<path d="M2.00326e-08 8.67811H8.67811V2.00326e-08C7.53846 -7.74148e-05 6.40996 0.224336 5.35705 0.660424C4.30414 1.09651 3.34744 1.73573 2.54159 2.54159C1.73573 3.34744 1.09651 4.30414 0.660424 5.35705C0.224336 6.40996 -7.74148e-05 7.53846 2.00326e-08 8.67811H2.00326e-08Z" fill="#E5FB70"/>
<path d="M0 28.0004C1.13965 28.0005 2.26815 27.776 3.32106 27.3399C4.37397 26.9039 5.33067 26.2646 6.13652 25.4588C6.94237 24.6529 7.5816 23.6962 8.01768 22.6433C8.45377 21.5904 8.67819 20.4619 8.67811 19.3223H0V28.0004Z" fill="#E5FB70"/>
<path d="M9.66113 0V18.3361C12.0672 18.2975 14.3616 17.3146 16.0495 15.5995C17.7374 13.8843 18.6833 11.5744 18.6833 9.16805C18.6833 6.76169 17.7374 4.45177 16.0495 2.73663C14.3616 1.02148 12.0672 0.0385908 9.66113 0Z" fill="#E5FB70"/>
</svg>
